<?xml version="1.0" encoding="UTF-8"?>
<svg id="Capa_1" data-name="Capa 1" xmlns="http://www.w3.org/2000/svg" viewBox="0 0 850.4 850.4">
  <defs>
    <style>
      .cls-1 {
        letter-spacing: 0em;
      }

      .cls-2, .cls-3 {
        fill: #fff;
      }

      .cls-4 {
        letter-spacing: 0em;
      }

      .cls-3 {
        font-family: RobotoSlab-Regular, 'Roboto Slab';
        font-size: 84.1px;
        font-variation-settings: 'wght' 400;
      }

      .cls-5 {
        letter-spacing: 0em;
      }
    </style>
  </defs>
  <text class="cls-3" transform="translate(212.1 415)"><tspan class="cls-1" x="0" y="0">G</tspan><tspan class="cls-5" x="56.5" y="0">arcía - Romero</tspan><tspan x="79.3" y="83.5">&amp; Asocia</tspan><tspan class="cls-4" x="421.1" y="83.5">d</tspan><tspan class="cls-5" x="470.9" y="83.5">os</tspan></text>
  <path class="cls-2" d="M82.9,380.7L0,298.1v95.6c0,0,75.7,75.7,75.7,75.7v55.7S0,449.4,0,449.4v20.1s82.9,82.8,82.9,82.8l83-82.9v-171.3c-.1,0-83,82.6-83,82.6Zm-7,69.9l-62.7-62.9v-57.4s62.7,62.8,62.7,62.8v57.6Zm76.8,11.6l-62.7,62.9v-55.7s31.3-31.3,31.3-31.3l-.2-18.6-31.1,31.2v-57.5s62.6-62.7,62.6-62.7v131.9Z"/>
</svg>